<svg width="141" height="20" viewBox="0 0 141 20" fill="none" xmlns="http://www.w3.org/2000/svg">
<path d="M2.33203 13.3633C2.34766 13.6836 2.40625 13.9961 2.50781 14.3008C2.60938 14.6055 2.76953 14.875 2.98828 15.1094C3.20703 15.3359 3.49609 15.5195 3.85547 15.6602C4.21484 15.793 4.66406 15.8594 5.20312 15.8594C5.82812 15.8594 6.34375 15.7773 6.75 15.6133C7.16406 15.4414 7.48828 15.2148 7.72266 14.9336C7.96484 14.6523 8.13281 14.332 8.22656 13.9727C8.32812 13.6133 8.37891 13.2422 8.37891 12.8594V7.26953C8.37891 6.84766 8.24219 6.54688 7.96875 6.36719C7.69531 6.17969 7.14453 6.08594 6.31641 6.08594V1.73828H17.2031V6.08594C16.5156 6.08594 16.0234 6.17969 15.7266 6.36719C15.4375 6.54688 15.293 6.89453 15.293 7.41016V12.8359C15.293 13.5078 15.1875 14.2344 14.9766 15.0156C14.7656 15.7969 14.3789 16.5156 13.8164 17.1719C13.2617 17.8281 12.4961 18.3789 11.5195 18.8242C10.543 19.2617 9.28906 19.4805 7.75781 19.4805C6.3125 19.4805 5.12891 19.2812 4.20703 18.8828C3.29297 18.4844 2.57812 17.9922 2.0625 17.4062C1.55469 16.8203 1.20312 16.2031 1.00781 15.5547C0.8125 14.9062 0.714844 14.3438 0.714844 13.8672C0.714844 13.1797 0.816406 12.5703 1.01953 12.0391C1.22266 11.5078 1.48438 11.0664 1.80469 10.7148C2.125 10.3633 2.49609 10.1016 2.91797 9.92969C3.33984 9.75 3.78125 9.66016 4.24219 9.66016C4.78906 9.66016 5.25391 9.74219 5.63672 9.90625C6.01953 10.0625 6.33594 10.2734 6.58594 10.5391C6.83594 10.8047 7.01562 11.1055 7.125 11.4414C7.24219 11.7773 7.30078 12.1211 7.30078 12.4727C7.30078 12.8555 7.23438 13.207 7.10156 13.5273C6.97656 13.8477 6.80469 14.125 6.58594 14.3594C6.375 14.5859 6.11719 14.7695 5.8125 14.9102C5.50781 15.043 5.1875 15.1094 4.85156 15.1094C4.44531 15.1094 4.10156 15.0586 3.82031 14.957C3.54688 14.8555 3.3125 14.7227 3.11719 14.5586C2.92969 14.3867 2.76953 14.1953 2.63672 13.9844C2.51172 13.7734 2.41016 13.5664 2.33203 13.3633ZM24.4336 7.71484C24.0352 7.71484 23.6914 7.74609 23.4023 7.80859C23.1211 7.86328 22.8789 7.92969 22.6758 8.00781C22.4727 8.08594 22.3047 8.17578 22.1719 8.27734C22.0391 8.37109 21.9219 8.45703 21.8203 8.53516L21.9375 8.65234C22.0859 8.57422 22.2461 8.49609 22.418 8.41797C22.5977 8.33984 22.8242 8.30078 23.0977 8.30078C23.5586 8.30078 23.957 8.45312 24.293 8.75781C24.6289 9.05469 24.7969 9.53125 24.7969 10.1875C24.7969 10.8125 24.5391 11.3164 24.0234 11.6992C23.5156 12.0742 22.832 12.2617 21.9727 12.2617C21.1523 12.2617 20.4961 12.0273 20.0039 11.5586C19.5195 11.082 19.2773 10.4102 19.2773 9.54297C19.2773 9.06641 19.4102 8.59375 19.6758 8.125C19.9414 7.64844 20.3516 7.22266 20.9062 6.84766C21.4688 6.47266 22.1797 6.16406 23.0391 5.92188C23.9062 5.67969 24.9492 5.55859 26.168 5.55859C27.6211 5.55859 28.8086 5.69531 29.7305 5.96875C30.6523 6.24219 31.3672 6.59375 31.875 7.02344C32.3906 7.45312 32.7422 7.94141 32.9297 8.48828C33.125 9.03516 33.2227 9.58594 33.2227 10.1406V14.7227C33.2227 15.4336 33.2461 15.918 33.293 16.1758C33.3398 16.4258 33.5156 16.5508 33.8203 16.5508C34.0625 16.5508 34.2305 16.4375 34.3242 16.2109C34.4258 15.9766 34.4766 15.5781 34.4766 15.0156V13.5508H35.8125V15.0391C35.8125 15.7422 35.7539 16.3672 35.6367 16.9141C35.5195 17.4531 35.2969 17.918 34.9688 18.3086C34.6406 18.6914 34.1953 18.9805 33.6328 19.1758C33.0703 19.3789 32.3516 19.4805 31.4766 19.4805C30.6875 19.4805 30.0312 19.3945 29.5078 19.2227C28.9922 19.0586 28.582 18.8516 28.2773 18.6016C27.9727 18.3516 27.7539 18.0938 27.6211 17.8281C27.4961 17.5547 27.4336 17.3125 27.4336 17.1016H27.2461C27.1992 17.4219 27.0625 17.7266 26.8359 18.0156C26.6172 18.3047 26.3086 18.5625 25.9102 18.7891C25.5195 19.0078 25.0469 19.1836 24.4922 19.3164C23.9453 19.457 23.3203 19.5273 22.6172 19.5273C21.9453 19.5273 21.332 19.4609 20.7773 19.3281C20.2305 19.2031 19.7617 19.0039 19.3711 18.7305C18.9883 18.4492 18.6875 18.0898 18.4688 17.6523C18.2578 17.207 18.1523 16.6797 18.1523 16.0703C18.1523 15.3203 18.3633 14.7305 18.7852 14.3008C19.207 13.8633 19.7383 13.5195 20.3789 13.2695C21.0195 13.0117 21.7148 12.8047 22.4648 12.6484C23.2227 12.4844 23.9219 12.2891 24.5625 12.0625C25.2031 11.8359 25.7344 11.543 26.1562 11.1836C26.5781 10.8242 26.7891 10.3164 26.7891 9.66016C26.7891 9.07422 26.6055 8.60547 26.2383 8.25391C25.8711 7.89453 25.2695 7.71484 24.4336 7.71484ZM26.7891 12.7891C26.6172 13.0391 26.4023 13.2422 26.1445 13.3984C25.8867 13.5469 25.6367 13.6953 25.3945 13.8438C25.1602 13.9844 24.9531 14.1562 24.7734 14.3594C24.6016 14.5547 24.5156 14.8203 24.5156 15.1562C24.5156 15.4141 24.5859 15.6484 24.7266 15.8594C24.8672 16.0625 25.1406 16.1641 25.5469 16.1641C25.9141 16.1641 26.2109 16.0234 26.4375 15.7422C26.6719 15.4531 26.7891 15.0508 26.7891 14.5352V12.7891ZM32.2383 0.859375L27.9492 4.48047H25.0664L27.5156 0.859375H32.2383ZM52.5 1.73828V13.6914C52.5 14.0117 52.5859 14.2539 52.7578 14.418C52.9375 14.5742 53.1875 14.6523 53.5078 14.6523H54.1758V19H46.3008V16.8672H46.1133C45.9883 17.2031 45.8047 17.5234 45.5625 17.8281C45.3203 18.1328 45.0234 18.4023 44.6719 18.6367C44.3203 18.8633 43.9023 19.043 43.418 19.1758C42.9414 19.3164 42.3984 19.3867 41.7891 19.3867C39.875 19.3867 38.4258 18.8086 37.4414 17.6523C36.457 16.4883 35.9648 14.7852 35.9648 12.543C35.9648 10.3008 36.4922 8.63672 37.5469 7.55078C38.6016 6.46484 40.0508 5.92188 41.8945 5.92188C42.3867 5.92188 42.8281 5.96094 43.2188 6.03906C43.6094 6.11719 43.9648 6.21875 44.2852 6.34375C44.6055 6.46094 44.9102 6.59766 45.1992 6.75391C45.4883 6.90234 45.7773 7.04688 46.0664 7.1875V6.76562C46.0664 6.34375 45.9922 6.04688 45.8438 5.875C45.7031 5.69531 45.4258 5.60547 45.0117 5.60547H44.3906V1.73828H52.5ZM42.6328 12.6602C42.6328 13.082 42.6562 13.4805 42.7031 13.8555C42.75 14.2305 42.8359 14.5586 42.9609 14.8398C43.0938 15.1211 43.2656 15.3398 43.4766 15.4961C43.6953 15.6523 43.9805 15.7305 44.332 15.7305C44.6836 15.7305 44.9727 15.6562 45.1992 15.5078C45.4258 15.3594 45.6016 15.1523 45.7266 14.8867C45.8594 14.6211 45.9492 14.3047 45.9961 13.9375C46.043 13.5703 46.0664 13.1797 46.0664 12.7656V10.1172C45.8711 9.92969 45.6094 9.77344 45.2812 9.64844C44.9531 9.51562 44.6367 9.44922 44.332 9.44922C43.9805 9.44922 43.6953 9.53906 43.4766 9.71875C43.2656 9.89062 43.0938 10.125 42.9609 10.4219C42.8359 10.7188 42.75 11.0625 42.7031 11.4531C42.6562 11.8438 42.6328 12.2461 42.6328 12.6602ZM61.9453 13.2695C61.9766 14.4336 62.1953 15.2383 62.6016 15.6836C63.0156 16.1211 63.6055 16.3398 64.3711 16.3398C64.6289 16.3398 64.8789 16.3047 65.1211 16.2344C65.3711 16.1562 65.6016 16.0352 65.8125 15.8711C66.0234 15.6992 66.2031 15.4766 66.3516 15.2031C66.5078 14.9219 66.6094 14.5703 66.6562 14.1484H70.9219C70.7656 15.1562 70.4766 16 70.0547 16.6797C69.6406 17.3594 69.1055 17.9102 68.4492 18.332C67.793 18.7461 67.0273 19.043 66.1523 19.2227C65.2852 19.4102 64.3164 19.5039 63.2461 19.5039C62.1445 19.5039 61.1094 19.3633 60.1406 19.082C59.1719 18.8008 58.3203 18.375 57.5859 17.8047C56.8594 17.2266 56.2891 16.5039 55.875 15.6367C55.4609 14.7617 55.2539 13.7227 55.2539 12.5195C55.2539 11.3711 55.4492 10.3633 55.8398 9.49609C56.2305 8.62891 56.7773 7.90625 57.4805 7.32812C58.1914 6.74219 59.0273 6.30078 59.9883 6.00391C60.957 5.70703 62.0195 5.55859 63.1758 5.55859C64.5977 5.55859 65.8203 5.74609 66.8438 6.12109C67.8672 6.49609 68.7031 7.01953 69.3516 7.69141C70 8.36328 70.4766 9.17188 70.7812 10.1172C71.0859 11.0625 71.2305 12.1133 71.2148 13.2695H61.9453ZM63.6797 8.72266C63.1328 8.72266 62.7266 8.91797 62.4609 9.30859C62.2031 9.69141 62.0312 10.3281 61.9453 11.2188H65.3789C65.332 10.4531 65.168 9.84766 64.8867 9.40234C64.6055 8.94922 64.2031 8.72266 63.6797 8.72266ZM85.9805 10.3633H82.7578C82.5312 9.80078 82.1797 9.35547 81.7031 9.02734C81.2266 8.69922 80.7305 8.53516 80.2148 8.53516C79.8633 8.53516 79.582 8.60156 79.3711 8.73438C79.168 8.85938 79.0664 9.05078 79.0664 9.30859C79.0664 9.62891 79.2461 9.87109 79.6055 10.0352C79.9648 10.1914 80.4141 10.332 80.9531 10.457C81.5 10.582 82.0898 10.7344 82.7227 10.9141C83.3555 11.0859 83.9414 11.3359 84.4805 11.6641C85.0273 11.9922 85.4805 12.4336 85.8398 12.9883C86.1992 13.543 86.3789 14.2734 86.3789 15.1797C86.3789 15.8828 86.2227 16.4961 85.9102 17.0195C85.5977 17.543 85.168 17.9727 84.6211 18.3086C84.082 18.6445 83.4453 18.8945 82.7109 19.0586C81.9766 19.2305 81.1836 19.3164 80.332 19.3164C79.5039 19.3164 78.7188 19.2344 77.9766 19.0703C77.2422 18.9141 76.5391 18.6445 75.8672 18.2617L75.75 19.0703H72.6562V14.3711H75.8672C76.1719 14.9961 76.5547 15.4805 77.0156 15.8242C77.4844 16.168 78 16.3398 78.5625 16.3398C78.9922 16.3398 79.2969 16.2617 79.4766 16.1055C79.6641 15.9414 79.7578 15.7617 79.7578 15.5664C79.7578 15.2461 79.5781 15 79.2188 14.8281C78.8594 14.6484 78.4141 14.4922 77.8828 14.3594C77.3594 14.2188 76.7812 14.0664 76.1484 13.9023C75.5156 13.7305 74.9336 13.4844 74.4023 13.1641C73.8789 12.8438 73.4375 12.4141 73.0781 11.875C72.7188 11.3281 72.5391 10.6133 72.5391 9.73047C72.5391 9.09766 72.6797 8.51953 72.9609 7.99609C73.25 7.47266 73.6602 7.03125 74.1914 6.67188C74.7227 6.3125 75.3477 6.03906 76.0664 5.85156C76.7852 5.65625 77.5742 5.55859 78.4336 5.55859C79.3945 5.55859 80.2578 5.66797 81.0234 5.88672C81.7969 6.09766 82.375 6.33203 82.7578 6.58984L82.875 5.75781H85.9805V10.3633ZM87.5039 12.5195C87.5039 11.3711 87.7031 10.3633 88.1016 9.49609C88.5 8.62891 89.0664 7.90625 89.8008 7.32812C90.543 6.74219 91.4336 6.30078 92.4727 6.00391C93.5117 5.70703 94.6719 5.55859 95.9531 5.55859C97.2344 5.55859 98.3945 5.70703 99.4336 6.00391C100.473 6.30078 101.359 6.74219 102.094 7.32812C102.828 7.90625 103.395 8.62891 103.793 9.49609C104.199 10.3633 104.402 11.3711 104.402 12.5195C104.402 13.6523 104.199 14.6562 103.793 15.5312C103.395 16.4062 102.828 17.1406 102.094 17.7344C101.359 18.3203 100.473 18.7617 99.4336 19.0586C98.3945 19.3555 97.2344 19.5039 95.9531 19.5039C94.6719 19.5039 93.5117 19.3555 92.4727 19.0586C91.4336 18.7617 90.543 18.3203 89.8008 17.7344C89.0664 17.1406 88.5 16.4062 88.1016 15.5312C87.7031 14.6562 87.5039 13.6523 87.5039 12.5195ZM94.1719 12.5195C94.1719 13.1758 94.1992 13.7344 94.2539 14.1953C94.3164 14.6484 94.4141 15.0156 94.5469 15.2969C94.6797 15.5703 94.8594 15.7734 95.0859 15.9062C95.3125 16.0312 95.6016 16.0938 95.9531 16.0938C96.3047 16.0938 96.5898 16.0312 96.8086 15.9062C97.0352 15.7734 97.2148 15.5703 97.3477 15.2969C97.4883 15.0156 97.5859 14.6484 97.6406 14.1953C97.6953 13.7344 97.7227 13.1758 97.7227 12.5195C97.7227 11.207 97.5977 10.2891 97.3477 9.76562C97.1055 9.23438 96.6406 8.96875 95.9531 8.96875C95.6016 8.96875 95.3125 9.03125 95.0859 9.15625C94.8594 9.27344 94.6797 9.47266 94.5469 9.75391C94.4141 10.0273 94.3164 10.3945 94.2539 10.8555C94.1992 11.3086 94.1719 11.8633 94.1719 12.5195ZM101.59 0.859375L97.3008 4.48047H94.418L96.8672 0.859375H101.59ZM114.023 1.73828V13.3867C114.023 13.9102 114.152 14.2539 114.41 14.418C114.668 14.5742 114.996 14.6523 115.395 14.6523H115.711V19H105.844V14.6523H106.301C106.715 14.6523 107.02 14.5234 107.215 14.2656C107.418 14 107.52 13.7148 107.52 13.4102V7.41016C107.52 6.95703 107.375 6.625 107.086 6.41406C106.805 6.19531 106.477 6.08594 106.102 6.08594H105.844V1.73828H114.023ZM122.684 7.71484C122.285 7.71484 121.941 7.74609 121.652 7.80859C121.371 7.86328 121.129 7.92969 120.926 8.00781C120.723 8.08594 120.555 8.17578 120.422 8.27734C120.289 8.37109 120.172 8.45703 120.07 8.53516L120.188 8.65234C120.336 8.57422 120.496 8.49609 120.668 8.41797C120.848 8.33984 121.074 8.30078 121.348 8.30078C121.809 8.30078 122.207 8.45312 122.543 8.75781C122.879 9.05469 123.047 9.53125 123.047 10.1875C123.047 10.8125 122.789 11.3164 122.273 11.6992C121.766 12.0742 121.082 12.2617 120.223 12.2617C119.402 12.2617 118.746 12.0273 118.254 11.5586C117.77 11.082 117.527 10.4102 117.527 9.54297C117.527 9.06641 117.66 8.59375 117.926 8.125C118.191 7.64844 118.602 7.22266 119.156 6.84766C119.719 6.47266 120.43 6.16406 121.289 5.92188C122.156 5.67969 123.199 5.55859 124.418 5.55859C125.871 5.55859 127.059 5.69531 127.98 5.96875C128.902 6.24219 129.617 6.59375 130.125 7.02344C130.641 7.45312 130.992 7.94141 131.18 8.48828C131.375 9.03516 131.473 9.58594 131.473 10.1406V14.7227C131.473 15.4336 131.496 15.918 131.543 16.1758C131.59 16.4258 131.766 16.5508 132.07 16.5508C132.312 16.5508 132.48 16.4375 132.574 16.2109C132.676 15.9766 132.727 15.5781 132.727 15.0156V13.5508H134.062V15.0391C134.062 15.7422 134.004 16.3672 133.887 16.9141C133.77 17.4531 133.547 17.918 133.219 18.3086C132.891 18.6914 132.445 18.9805 131.883 19.1758C131.32 19.3789 130.602 19.4805 129.727 19.4805C128.938 19.4805 128.281 19.3945 127.758 19.2227C127.242 19.0586 126.832 18.8516 126.527 18.6016C126.223 18.3516 126.004 18.0938 125.871 17.8281C125.746 17.5547 125.684 17.3125 125.684 17.1016H125.496C125.449 17.4219 125.312 17.7266 125.086 18.0156C124.867 18.3047 124.559 18.5625 124.16 18.7891C123.77 19.0078 123.297 19.1836 122.742 19.3164C122.195 19.457 121.57 19.5273 120.867 19.5273C120.195 19.5273 119.582 19.4609 119.027 19.3281C118.48 19.2031 118.012 19.0039 117.621 18.7305C117.238 18.4492 116.938 18.0898 116.719 17.6523C116.508 17.207 116.402 16.6797 116.402 16.0703C116.402 15.3203 116.613 14.7305 117.035 14.3008C117.457 13.8633 117.988 13.5195 118.629 13.2695C119.27 13.0117 119.965 12.8047 120.715 12.6484C121.473 12.4844 122.172 12.2891 122.812 12.0625C123.453 11.8359 123.984 11.543 124.406 11.1836C124.828 10.8242 125.039 10.3164 125.039 9.66016C125.039 9.07422 124.855 8.60547 124.488 8.25391C124.121 7.89453 123.52 7.71484 122.684 7.71484ZM125.039 12.7891C124.867 13.0391 124.652 13.2422 124.395 13.3984C124.137 13.5469 123.887 13.6953 123.645 13.8438C123.41 13.9844 123.203 14.1562 123.023 14.3594C122.852 14.5547 122.766 14.8203 122.766 15.1562C122.766 15.4141 122.836 15.6484 122.977 15.8594C123.117 16.0625 123.391 16.1641 123.797 16.1641C124.164 16.1641 124.461 16.0234 124.688 15.7422C124.922 15.4531 125.039 15.0508 125.039 14.5352V12.7891ZM130.488 0.859375L126.199 4.48047H123.316L125.766 0.859375H130.488ZM134.836 16.5273C134.836 16.1289 134.914 15.7461 135.07 15.3789C135.234 15.0117 135.445 14.6953 135.703 14.4297C135.969 14.1641 136.281 13.9531 136.641 13.7969C137.008 13.6328 137.398 13.5508 137.812 13.5508C138.211 13.5508 138.594 13.6328 138.961 13.7969C139.328 13.9531 139.645 14.1641 139.91 14.4297C140.176 14.6953 140.387 15.0117 140.543 15.3789C140.707 15.7461 140.789 16.1289 140.789 16.5273C140.789 16.9414 140.707 17.3281 140.543 17.6875C140.387 18.0469 140.176 18.3594 139.91 18.625C139.645 18.8906 139.328 19.1016 138.961 19.2578C138.594 19.4219 138.211 19.5039 137.812 19.5039C137.398 19.5039 137.008 19.4219 136.641 19.2578C136.281 19.1016 135.969 18.8906 135.703 18.625C135.445 18.3594 135.234 18.0469 135.07 17.6875C134.914 17.3281 134.836 16.9414 134.836 16.5273Z" fill="white"/>
</svg>
